<svg width="705" height="595" viewBox="0 0 705 595" fill="none" xmlns="http://www.w3.org/2000/svg">
<path opacity="0.139718" fill-rule="evenodd" clip-rule="evenodd" d="M1.07453 82.0952C0.278957 84.7757 0.00652107 109.79 0 142.56V145.151C0.0137667 212.61 1.09699 439.45 1.07598 445.069C0.949178 478.416 20.7884 513.422 70.5558 547.654C143.48 597.817 197.599 578.026 250.092 566.101C293.713 556.193 334.829 546.284 381 572C482.734 628.664 552.729 568.831 659.732 498.074C688.187 479.257 701.611 456.995 703.166 432.937C703.572 426.672 704.473 353.502 704.481 287.577V285.696C704.475 233.555 703.899 186.407 702.064 181.168C681.698 123.027 602.602 133.093 511.255 84.1267C412.946 31.4293 324.03 0.957361 245.133 0.961548C201.631 0.963641 161.164 10.2305 123.871 30.1453C67.9662 59.9982 14.8115 35.851 1.07453 82.0952Z" fill="url(#paint0_linear)"/>
<defs>
<linearGradient id="paint0_linear" x1="669.208" y1="535.077" x2="669.208" y2="0.961548" gradientUnits="userSpaceOnUse">
<stop stop-color="white"/>
<stop offset="1" stop-color="#DDDDFF"/>
</linearGradient>
</defs>
</svg>
